HIERARCHY
ROOT SpineBase
{
  OFFSET 0.000000 0.000000 0.000000
  CHANNELS 6 Xposition Yposition Zposition Zrotation Xrotation Yrotation
  JOINT SpineMid
  {
    OFFSET 0.000000 28.832268 0.000000
    CHANNELS 3 Zrotation Xrotation Yrotation
    JOINT SpineShoulder
    {
      OFFSET 0.021584 21.464203 -0.713651
      CHANNELS 3 Zrotation Xrotation Yrotation
      JOINT Neck
      {
        OFFSET 0.005906 7.119514 -0.545044
        CHANNELS 3 Zrotation Xrotation Yrotation
        JOINT Head
        {
          OFFSET -1.018228 14.436606 -0.701921
          CHANNELS 3 Zrotation Xrotation Yrotation
          End Site
          {
            OFFSET 0 0 0
          }
        }
      }
      JOINT ShoulderLeft
      {
        OFFSET -16.452090 -3.540909 -0.419892
        CHANNELS 3 Zrotation Xrotation Yrotation
        JOINT ElbowLeft
        {
          OFFSET -2.734284 -26.897122 1.630609
          CHANNELS 3 Zrotation Xrotation Yrotation
          JOINT WristLeft
          {
            OFFSET -1.091348 -20.320349 -5.130307
            CHANNELS 3 Zrotation Xrotation Yrotation
            JOINT HandLeft
            {
              OFFSET 2.369399 -4.814677 -1.190573
              CHANNELS 3 Zrotation Xrotation Yrotation
              JOINT HandTipLeft
              {
                OFFSET 0.839760 -6.299361 -0.605060
                CHANNELS 3 Zrotation Xrotation Yrotation
                End Site
                {
                  OFFSET 0 0 0
                }
              }
              JOINT ThumbLeft
              {
                OFFSET -3.115441 0.854612 -0.884737
                CHANNELS 3 Zrotation Xrotation Yrotation
                End Site
                {
                  OFFSET 0 0 0
                }
              }
            }
          }
        }
      }
      JOINT ShoulderRight
      {
        OFFSET 16.290450 -2.740798 -3.611188
        CHANNELS 3 Zrotation Xrotation Yrotation
        JOINT ElbowRight
        {
          OFFSET 5.305924 -22.898349 -2.186660
          CHANNELS 3 Zrotation Xrotation Yrotation
          JOINT WristRight
          {
            OFFSET -0.560893 -19.463242 -9.473139
            CHANNELS 3 Zrotation Xrotation Yrotation
            JOINT HandRight
            {
              OFFSET -0.403329 -6.618442 -3.429458
              CHANNELS 3 Zrotation Xrotation Yrotation
              JOINT HandTipRight
              {
                OFFSET -0.099339 -6.261102 -1.203770
                CHANNELS 3 Zrotation Xrotation Yrotation
                End Site
                {
                  OFFSET 0 0 0
                }
              }
              JOINT ThumbRight
              {
                OFFSET 1.915254 0.958113 -4.372632
                CHANNELS 3 Zrotation Xrotation Yrotation
                End Site
                {
                  OFFSET 0 0 0
                }
              }
            }
          }
        }
      }
    }
  }
  JOINT HipLeft
  {
    OFFSET -7.519890 0.848468 -2.828636
    CHANNELS 3 Zrotation Xrotation Yrotation
    JOINT KneeLeft
    {
      OFFSET -4.059013 -26.767345 -1.338698
      CHANNELS 3 Zrotation Xrotation Yrotation
      JOINT AnkleLeft
      {
        OFFSET -2.529443 -33.549557 5.775024
        CHANNELS 3 Zrotation Xrotation Yrotation
        JOINT FootLeft
        {
          OFFSET -0.703061 -3.372152 -13.199406
          CHANNELS 3 Zrotation Xrotation Yrotation
          End Site
          {
            OFFSET 0 0 0
          }
        }
      }
    }
  }
  JOINT HipRight
  {
    OFFSET 7.356918 0.897731 -3.888774
    CHANNELS 3 Zrotation Xrotation Yrotation
    JOINT KneeRight
    {
      OFFSET 3.946213 -27.246559 5.834496
      CHANNELS 3 Zrotation Xrotation Yrotation
      JOINT AnkleRight
      {
        OFFSET 2.344740 -32.807052 6.151997
        CHANNELS 3 Zrotation Xrotation Yrotation
        JOINT FootRight
        {
          OFFSET 0.970897 -5.927788 -8.370228
          CHANNELS 3 Zrotation Xrotation Yrotation
          End Site
          {
            OFFSET 0 0 0
          }
        }
      }
    }
  }
}
MOTION
Frames: 15
Frame Time: 0.033333
4.600809 65.098368 357.157261 -0.707713 4.055612 17.303150 0.062676 0.701142 -17.312748 -0.173882 0.171780 -0.055567 -1.806512 4.114694 0.611287 0.000000 0.000000 0.000000 -4.952191 5.181054 -1.252027 23.415356 -2.197024 -1.000991 -28.405888 2.046074 11.175034 16.195050 -3.640747 -5.607692 0.000000 0.000000 0.000000 0.000000 0.000000 0.000000 -5.083826 -8.399717 -0.819941 1.788835 -4.123736 2.410756 -12.618304 -6.788777 7.638574 9.563546 12.069595 -8.357243 0.000000 0.000000 0.000000 0.000000 0.000000 0.000000 1.423161 4.575168 -18.607905 5.827211 -8.814094 2.975146 -6.691917 0.258018 6.337631 0.000000 0.000000 0.000000 12.569827 -1.423201 -13.225676 -7.358236 -10.894607 -2.759388 -12.425966 13.803247 11.508071 0.000000 0.000000 0.000000
5.382885 64.968501 356.843091 -3.869755 5.904224 15.462064 0.148151 0.856161 -15.376842 -0.152975 0.231930 -0.183459 -3.295519 5.748287 1.046325 0.000000 0.000000 0.000000 -8.764475 2.569469 -1.680403 31.361709 3.053218 -1.524801 -30.940513 5.097151 14.653855 14.563300 -6.386312 -7.651493 0.000000 0.000000 0.000000 0.000000 0.000000 0.000000 -5.986542 -7.102993 0.279985 3.253917 -4.887877 2.239922 -14.010418 -5.287890 7.912583 10.874991 11.606876 -9.012988 0.000000 0.000000 0.000000 0.000000 0.000000 0.000000 3.036331 1.793831 -16.303470 5.849248 -8.779359 2.724797 -5.560765 0.944242 4.431136 0.000000 0.000000 0.000000 15.550429 -4.063213 -10.400561 -6.312538 -11.839325 -2.325986 -13.735927 18.986437 11.526879 0.000000 0.000000 0.000000
6.476207 64.798806 356.401312 -7.028771 7.890601 12.434116 0.073684 0.949616 -12.146827 -0.103697 0.264056 -0.309396 -5.927946 7.719394 1.568008 0.000000 0.000000 0.000000 -12.802244 -0.057523 -2.600353 37.548181 19.177139 -4.021810 -35.540527 5.936652 19.699180 10.165586 -9.535595 -13.648849 0.000000 0.000000 0.000000 0.000000 0.000000 0.000000 -7.398343 -5.483858 1.571092 4.805795 -4.956705 2.195651 -15.213658 -4.429867 7.796797 11.922038 14.388041 -9.010597 0.000000 0.000000 0.000000 0.000000 0.000000 0.000000 4.963003 -1.732333 -12.559425 5.076576 -7.914709 2.142512 -3.841358 1.644721 2.015873 0.000000 0.000000 0.000000 18.253837 -6.800230 -6.421049 -4.931827 -11.818074 -1.738212 -14.923460 25.051203 11.779017 0.000000 0.000000 0.000000
8.012669 64.649814 355.926631 -10.840606 10.163371 7.795063 0.366062 0.724234 -7.095272 0.018749 0.259403 -0.430856 -8.509171 8.541475 1.942198 0.000000 0.000000 0.000000 -17.304204 -2.874293 -4.121602 22.901925 58.503559 3.260527 -32.596483 8.670495 34.465300 -10.668381 -2.727069 -43.854762 0.000000 0.000000 0.000000 0.000000 0.000000 0.000000 -8.368080 -3.909541 2.982763 4.361011 -1.892081 3.139734 -10.643292 -12.922319 2.806318 10.314243 26.820353 -6.799062 0.000000 0.000000 0.000000 0.000000 0.000000 0.000000 7.618396 -5.789752 -6.847517 4.204972 -6.244568 1.317150 -1.296030 2.122485 -1.730535 0.000000 0.000000 0.000000 21.649863 -8.904182 -0.757016 -3.680339 -11.439596 -1.265604 -14.826982 31.261186 11.283304 0.000000 0.000000 0.000000
9.892487 64.331141 355.602382 -14.285263 12.057237 1.875662 0.725830 0.643359 -0.667718 0.167799 0.275498 -0.523645 -11.061703 8.237903 1.930908 0.000000 0.000000 0.000000 -21.148556 -5.140718 -5.857633 -92.987674 47.071105 95.584421 -6.839212 -9.049384 63.704302 -5.080020 17.493465 -86.157743 0.000000 0.000000 0.000000 0.000000 0.000000 0.000000 -8.917473 -2.068527 4.518207 4.411354 0.085170 3.566447 -12.665092 -15.620445 1.523182 12.559616 26.888648 -7.577825 0.000000 0.000000 0.000000 0.000000 0.000000 0.000000 10.605755 -9.002556 0.190804 3.289076 -4.067553 0.417307 1.755277 2.234090 -6.028379 0.000000 0.000000 0.000000 24.810614 -9.285585 5.729894 -2.638984 -10.820211 -0.950208 -9.881055 32.850093 5.121550 0.000000 0.000000 0.000000
11.810449 63.945140 355.486709 -16.987295 13.424224 -4.652688 0.858988 0.668702 6.310895 0.174315 0.264791 -0.623854 -13.217913 8.221432 1.931440 0.000000 0.000000 0.000000 -24.186711 -6.839470 -7.473542 -98.385613 21.136211 84.525869 7.856861 -10.750189 90.821348 6.364345 15.741903 -103.002507 0.000000 0.000000 0.000000 0.000000 0.000000 0.000000 -8.998753 -2.008778 5.193655 5.614715 6.246892 4.484334 -9.390501 -18.031541 -1.014143 10.028712 31.324869 -5.082221 0.000000 0.000000 0.000000 0.000000 0.000000 0.000000 13.557453 -10.889640 7.637111 2.557304 -1.874455 -0.362530 4.842382 2.002540 -10.519753 0.000000 0.000000 0.000000 27.706927 -7.386526 12.468120 -2.815150 -10.891426 -1.063051 -4.092884 30.690848 -1.438145 0.000000 0.000000 0.000000
13.739397 63.504010 355.652883 -18.994275 14.107726 -10.796271 0.695654 0.626845 12.726188 0.165017 0.229034 -0.718277 -14.703500 7.803701 1.812249 0.000000 0.000000 0.000000 -26.916109 -9.020830 -9.114803 -96.867367 12.072834 80.041101 11.979531 -9.573462 102.312930 11.902416 12.494378 -103.012628 0.000000 0.000000 0.000000 0.000000 0.000000 0.000000 -7.516154 -3.296625 5.107011 6.470624 11.884406 5.260194 -14.047010 -21.293248 -1.907329 13.446481 30.446608 -6.480749 0.000000 0.000000 0.000000 0.000000 0.000000 0.000000 15.662654 -11.551128 14.284800 2.478725 0.150364 -0.991923 7.584501 1.384051 -14.565297 0.000000 0.000000 0.000000 29.167331 -3.994340 18.224094 -3.072835 -11.402788 -1.302510 0.841804 29.756636 -6.374019 0.000000 0.000000 0.000000
15.547657 62.974848 356.097439 -19.764401 14.010580 -15.814391 0.493429 0.434462 17.735906 0.250720 0.195414 -0.748628 -18.224625 8.543759 1.840389 0.000000 0.000000 0.000000 -28.937901 -9.116658 -9.688859 -93.141733 7.477265 73.864458 6.461386 -15.401306 91.331641 17.783860 4.575234 -81.175307 0.000000 0.000000 0.000000 0.000000 0.000000 0.000000 -5.705233 -5.321985 4.336948 7.733328 16.691521 5.319383 -13.721970 -20.061351 -1.549543 11.389858 28.152432 -5.517538 0.000000 0.000000 0.000000 0.000000 0.000000 0.000000 15.765098 -11.505052 19.217594 3.218984 1.878116 -1.476010 9.674770 0.348405 -17.568492 0.000000 0.000000 0.000000 28.354859 -0.135179 22.416930 -3.678494 -12.234717 -1.772538 5.283660 28.166734 -9.901870 0.000000 0.000000 0.000000
17.096694 62.403839 356.745124 -20.883917 13.658177 -18.891834 0.596274 0.545200 20.880717 0.281414 0.087115 -0.803512 -20.118160 8.384630 1.718628 0.000000 0.000000 0.000000 -28.670245 -6.974050 -8.867134 -88.267612 2.225580 59.307040 0.966983 -18.222900 73.729956 26.103029 3.491097 -54.342940 0.000000 0.000000 0.000000 0.000000 0.000000 0.000000 -2.832136 -8.022959 3.359152 8.738474 18.577552 4.667175 -18.748999 -13.331698 1.326820 16.028154 20.537082 -7.374317 0.000000 0.000000 0.000000 0.000000 0.000000 0.000000 15.237473 -11.081286 22.091880 4.657833 2.967699 -1.810339 11.159637 -0.847251 -19.749245 0.000000 0.000000 0.000000 27.980994 3.227714 25.039558 -4.196815 -13.423387 -2.215272 8.313165 26.961082 -12.457802 0.000000 0.000000 0.000000
18.157857 61.994391 357.396867 -21.380555 13.085221 -22.061053 0.309974 0.502908 23.950629 0.066452 0.079326 -0.883626 -20.828578 7.955647 1.624337 0.000000 0.000000 0.000000 -27.731422 -4.997641 -7.852625 -81.440531 -0.799358 46.827921 -4.838389 -16.179837 56.809368 31.570429 7.588615 -29.909020 0.000000 0.000000 0.000000 0.000000 0.000000 0.000000 -0.425299 -10.403183 2.518754 11.257105 16.675570 3.016696 -21.063708 -5.075737 5.124664 16.118415 16.911692 -7.135196 0.000000 0.000000 0.000000 0.000000 0.000000 0.000000 14.377924 -10.807864 24.984929 6.053193 4.294407 -2.118362 12.168443 -2.153103 -20.942839 0.000000 0.000000 0.000000 27.167689 6.750106 27.798156 -4.776170 -14.716875 -2.668644 10.016437 25.937609 -13.921773 0.000000 0.000000 0.000000
18.716673 61.753836 357.953780 -21.644712 12.446428 -23.791446 -0.126998 0.474368 25.549842 0.037966 0.021401 -0.930786 -20.778120 7.153049 1.394122 0.000000 0.000000 0.000000 -26.432378 -3.477572 -6.891952 -80.240188 -3.303693 40.249462 -8.351288 -15.147841 50.495527 33.296167 9.910200 -22.199230 0.000000 0.000000 0.000000 0.000000 0.000000 0.000000 2.191204 -13.207829 1.541451 13.207660 13.084664 1.423291 -20.212871 -0.257060 7.431841 15.058308 16.232651 -6.764923 0.000000 0.000000 0.000000 0.000000 0.000000 0.000000 13.375508 -10.523259 26.459584 7.268301 5.315099 -2.303708 12.659099 -3.430162 -21.507981 0.000000 0.000000 0.000000 26.517982 9.226520 29.283085 -5.193350 -15.622775 -2.986581 10.777434 25.117152 -14.678078 0.000000 0.000000 0.000000
19.161201 61.545128 358.441710 -22.124689 11.869315 -25.022304 -0.276101 0.437800 26.693233 -0.049838 -0.036683 -0.987553 -20.043608 6.443496 1.281467 0.000000 0.000000 0.000000 -25.548936 -2.497269 -6.195340 -80.690997 -4.841229 37.302216 -11.634649 -15.153531 44.040889 35.290255 10.994163 -15.796072 0.000000 0.000000 0.000000 0.000000 0.000000 0.000000 4.554369 -15.752275 0.687241 14.948780 8.921858 0.079670 -16.679064 -0.143054 7.503936 11.549464 18.233596 -6.014838 0.000000 0.000000 0.000000 0.000000 0.000000 0.000000 13.042643 -10.005416 27.546323 7.732686 6.216439 -2.439072 13.221079 -4.555619 -21.839406 0.000000 0.000000 0.000000 25.914091 11.428511 30.363196 -5.349634 -16.566843 -3.231292 11.303348 24.446292 -15.222619 0.000000 0.000000 0.000000
19.302733 61.447500 358.770626 -22.062420 11.319589 -24.977997 -0.513991 0.349453 26.507458 -0.191248 -0.061455 -1.028094 -20.206194 5.851858 1.078524 0.000000 0.000000 0.000000 -24.654662 -2.035719 -5.682461 -82.535881 -4.982331 37.585900 -15.893773 -15.693534 37.155402 38.194845 12.403923 -7.184903 0.000000 0.000000 0.000000 0.000000 0.000000 0.000000 6.704023 -18.013919 -0.034949 15.665265 4.087287 -0.701601 -8.176315 -0.749536 4.503275 2.846045 22.744717 -2.456588 0.000000 0.000000 0.000000 0.000000 0.000000 0.000000 12.459507 -9.506175 27.350894 7.695429 6.626529 -2.461651 13.414172 -5.290950 -21.362018 0.000000 0.000000 0.000000 25.952516 12.399915 30.233694 -6.088748 -16.798016 -3.524874 11.155764 24.222448 -14.839044 0.000000 0.000000 0.000000
19.457707 61.430458 358.992506 -22.440042 11.058192 -24.901475 -0.415801 0.353127 26.410531 -0.276820 -0.084290 -1.061273 -20.093159 4.249505 0.386339 0.000000 0.000000 0.000000 -24.573080 -2.537142 -5.719902 -82.543395 -5.582723 37.876048 -10.790475 -15.653759 46.359779 35.453049 10.172025 -17.515009 0.000000 0.000000 0.000000 0.000000 0.000000 0.000000 8.618204 -19.417936 -0.352148 14.982482 0.852804 -0.623326 -0.190017 -6.012528 0.763751 -4.987402 29.362759 1.692590 0.000000 0.000000 0.000000 0.000000 0.000000 0.000000 12.408884 -9.159708 27.235567 7.755262 7.039236 -2.491009 13.679455 -5.981627 -21.460981 0.000000 0.000000 0.000000 26.333727 13.188052 30.151411 -6.487482 -17.122989 -3.705383 11.335716 23.974389 -15.088471 0.000000 0.000000 0.000000
19.537359 61.346747 359.186042 -22.432025 10.757174 -24.527634 -0.471734 0.468673 26.001702 -0.336275 -0.087315 -1.072398 -20.097334 2.172982 -0.591514 0.000000 0.000000 0.000000 -24.978602 -3.767594 -6.134412 -83.681568 -4.744288 42.269604 -8.837080 -16.759054 50.239534 34.928618 7.630380 -23.308214 0.000000 0.000000 0.000000 0.000000 0.000000 0.000000 9.247963 -19.607634 -0.374342 15.839221 -3.595918 -1.126599 -0.456358 -2.613390 0.876017 -2.455168 21.697197 0.421189 0.000000 0.000000 0.000000 0.000000 0.000000 0.000000 12.080636 -8.803528 26.785086 7.711584 7.159302 -2.472903 13.775382 -6.401814 -21.395812 0.000000 0.000000 0.000000 26.474087 13.520703 29.739636 -6.818660 -17.239576 -3.833500 11.362296 23.849672 -15.106051 0.000000 0.000000 0.000000
